<?xml version="1.0" encoding="UTF-8"?>
<svg version="1.1" xmlns="http://www.w3.org/2000/svg" width="3300" height="2464">
<path d="M0 0 C70.09140342 -0.04033135 70.09140342 -0.04033135 100.40429688 -0.04882812 C107.33129885 -0.05078325 114.25830081 -0.05280294 121.18530273 -0.05493164 C122.48591275 -0.05532726 122.48591275 -0.05532726 123.81279773 -0.05573088 C135.78090769 -0.0594525 147.74901417 -0.06556305 159.71712188 -0.07373755 C229.87396661 -0.12154593 300.03129225 -0.12524119 370.1872145 0.28066182 C375.27220034 0.30945861 380.35718402 0.33122454 385.44221687 0.34971428 C392.21423955 0.37452918 398.98600183 0.41488938 405.75788808 0.46558452 C408.20042714 0.48175833 410.64300252 0.49333519 413.08558726 0.49953389 C452.35121171 0.61041171 489.90125465 7.41453288 526 23 C526.77666016 23.33338379 527.55332031 23.66676758 528.35351562 24.01025391 C547.22724891 32.22676753 565.12528499 42.87929056 581 56 C581.92425781 56.73476562 582.84851563 57.46953125 583.80078125 58.2265625 C592.83534116 65.45932192 601.80213751 73.040627 609.24609375 81.9375 C611.31455687 84.36990206 613.50187868 86.67236525 615.6875 89 C661.03123627 138.94681253 680.85792679 207.61951943 677.859375 274.11865234 C675.38302673 319.40346424 662.89174748 364.32121495 631 398 C630.34 398 629.68 398 629 398 C628.773125 398.55816406 628.54625 399.11632813 628.3125 399.69140625 C621.96668732 410.85323749 607.26157991 418.84876871 597 426 C600.50102879 429.7793157 604.48321651 432.66575763 608.625 435.6875 C614.28513243 439.871882 619.67525657 444.18175068 624.83203125 448.984375 C626.90222547 450.90909611 629.02953109 452.73747487 631.1875 454.5625 C635.19494106 458.06500349 638.59889706 461.91576955 642 466 C642.66515625 466.76570313 643.3303125 467.53140625 644.015625 468.3203125 C655.01736235 481.261205 664.01407199 495.53460076 671 511 C671.53109375 512.13953125 672.0621875 513.2790625 672.609375 514.453125 C679.69499929 530.74275609 683.82987631 549.29041639 685 567 C685.06558105 567.95583984 685.13116211 568.91167969 685.19873047 569.89648438 C689.93589421 644.64597464 667.52724594 716.07435788 618.140625 772.51171875 C609.82081062 781.85193696 600.91244524 790.35649788 591 798 C590.06800781 798.72574219 589.13601563 799.45148437 588.17578125 800.19921875 C585.14974075 802.51420033 582.08715745 804.76722192 579 807 C577.96230469 807.75796875 576.92460938 808.5159375 575.85546875 809.296875 C549.74402531 827.81782704 519.12042866 840.08064702 488 847 C487.11505859 847.19819336 486.23011719 847.39638672 485.31835938 847.60058594 C458.63108524 853.4402736 431.99970661 853.28681796 404.8249259 853.23213124 C399.38013586 853.22341081 393.93534988 853.22642292 388.49055481 853.22793579 C379.08094257 853.22897926 369.67135829 853.22275927 360.26175308 853.21146011 C346.65741849 853.1951346 333.05309727 853.18998993 319.44875394 853.18748413 C297.37110175 853.18311803 275.29346444 853.16983853 253.21582031 853.15087891 C231.78255283 853.13249191 210.34928942 853.11832614 188.91601562 853.10986328 C188.25405432 853.10960023 187.59209301 853.10933718 186.91007228 853.10906615 C179.60196122 853.10616715 172.29385012 853.10338355 164.98573899 853.10064721 C109.99047945 853.07994854 54.99524744 853.04309713 0 853 C0 801.85 0 750.7 0 698 C28.71 698 57.42 698 87 698 C87 519.14 87 340.28 87 156 C58.29 156 29.58 156 0 156 C0 104.52 0 53.04 0 0 Z M274 156 C274 218.7 274 281.4 274 346 C297.0175 346.061875 320.035 346.12375 343.75 346.1875 C351.00194336 346.21481201 358.25388672 346.24212402 365.72558594 346.27026367 C372.25979401 346.28030064 372.25979401 346.28030064 378.79400635 346.28633118 C381.69104998 346.28911176 384.58792655 346.30029632 387.48492432 346.31672668 C391.19316733 346.33747578 394.90117135 346.34344211 398.60946703 346.33921683 C400.59512387 346.34051149 402.58075498 346.35651233 404.5663414 346.37328625 C415.47937402 346.33571838 425.39354385 344.39488602 435.125 339.375 C435.80022705 339.03235107 436.4754541 338.68970215 437.17114258 338.33666992 C443.28599272 335.09699003 448.18367151 330.95877074 453 326 C453.825 325.18660156 454.65 324.37320313 455.5 323.53515625 C474.63700424 304.12903788 484.0827014 278.07289486 484 251 C482.97931803 222.47904507 470.3138162 194.83551305 450 175 C429.59102588 156.23877591 408.81545767 155.38921285 382.41564941 155.59487915 C378.96979375 155.6179441 375.52405894 155.61874685 372.078125 155.62158203 C362.05201363 155.6424322 352.02599963 155.69827712 342 155.75 C308.34 155.87375 308.34 155.87375 274 156 Z M274 501 C274 566.01 274 631.02 274 698 C298.46125 698.0825 322.9225 698.165 348.125 698.25 C359.68039795 698.30462402 359.68039795 698.30462402 371.46923828 698.36035156 C378.41721751 698.37373511 378.41721751 698.37373511 385.36520386 698.3817749 C388.44304099 698.38547875 391.5205979 698.40037652 394.59835815 698.42230225 C398.54025153 698.45000629 402.48174511 698.45791603 406.4237268 698.4522891 C407.8604036 698.45346342 409.29709628 698.46123607 410.73368859 698.47686052 C432.41882816 698.70150248 448.3210487 690.36743297 463.6875 675.625 C483.87231039 654.76854093 493.3256311 624.60320347 493 596 C492.01060919 570.75569345 484.83424762 549.41890555 470 529 C469.26716797 527.95779297 469.26716797 527.95779297 468.51953125 526.89453125 C457.3586268 512.43686733 439.55179095 504.08921837 422 501 C416.85827923 500.51638715 411.75634286 500.48868936 406.59765625 500.54589844 C405.11388694 500.54712819 403.63011531 500.54658232 402.14634705 500.54443741 C398.22711842 500.54354643 394.30839349 500.56647029 390.38928223 500.59487915 C386.69114867 500.61791852 382.99312823 500.61874551 379.29492188 500.62158203 C368.52988303 500.64244451 357.76493487 500.69828951 347 500.75 C322.91 500.8325 298.82 500.915 274 501 Z " fill="#000000" transform="translate(150,1134)"/>
<path d="M0 0 C1.18521744 -0.00151062 1.18521744 -0.00151062 2.39437866 -0.00305176 C66.06139727 0.05095921 126.95361574 15.60238837 183.75 44.25 C184.94955322 44.84893066 184.94955322 44.84893066 186.17333984 45.45996094 C202.96476992 53.88307117 218.65637342 64.0958392 233.75 75.25 C234.38502441 75.71374023 235.02004883 76.17748047 235.67431641 76.65527344 C245.41638301 83.77109374 254.73627178 91.23206896 263.75 99.25 C264.70132813 100.08917969 265.65265625 100.92835937 266.6328125 101.79296875 C273.90687075 108.35901867 280.87196101 115.24473101 287.82382202 122.14859009 C288.92420977 123.24092402 290.02607247 124.33177453 291.12954712 125.42098999 C298.16121907 132.37139575 304.6042866 139.49368585 310.75 147.25 C312.1421033 148.91978348 313.53751023 150.58682318 314.9375 152.25 C376.62794807 227.88785373 411.03659564 324.99209576 412.75 490.25 C407.09230312 542.94197163 393.22879788 594.24636911 370.75 642.25 C370.22293457 643.37583496 369.69586914 644.50166992 369.15283203 645.66162109 C351.48549684 682.97020427 328.34863483 718.09188182 300.3046875 748.44921875 C298.33217465 750.61174431 296.41285425 752.79817124 294.50390625 755.015625 C290.46606824 759.64376789 286.16509124 763.9819472 281.8125 768.3125 C280.67264648 769.4581543 280.67264648 769.4581543 279.50976562 770.62695312 C274.75279891 775.37579522 269.85381112 779.87845449 264.75 784.25 C263.65523389 785.21108337 262.56143536 786.17327037 261.46875 787.13671875 C225.06774744 818.95039768 182.18022585 843.87853604 136.75 860.25 C135.80125 860.59369629 134.8525 860.93739258 133.875 861.29150391 C65.02140608 885.94321907 -10.77387831 890.24955108 -82.25 875.25 C-83.22710938 875.04568359 -84.20421875 874.84136719 -85.2109375 874.63085938 C-114.23625877 868.36854691 -142.52779452 858.0868418 -169.25 845.25 C-170.22598145 844.7873877 -171.20196289 844.32477539 -172.20751953 843.84814453 C-205.05161765 828.21681755 -235.09803113 807.41313486 -262.25 783.25 C-262.75885742 782.79898926 -263.26771484 782.34797852 -263.79199219 781.88330078 C-277.29714468 769.84723686 -291.20665574 757.23337058 -302.203125 742.83203125 C-304.07412702 740.47185504 -306.02631035 738.25503865 -308.04296875 736.01953125 C-369.65741105 667.08828522 -403.29670606 569.01968212 -410.6875 417.41796875 C-407.19541099 356.39875 -392.43973715 297.85663144 -367.25 242.25 C-366.83556641 241.32396973 -366.42113281 240.39793945 -365.99414062 239.44384766 C-348.53653233 200.65141807 -323.99769366 165.04450611 -295.4140625 133.6328125 C-293.98073335 132.0545981 -292.5586322 130.46610715 -291.1484375 128.8671875 C-282.40239327 118.97620657 -273.28279659 109.62676666 -262.921875 101.421875 C-260.13125631 99.15347735 -257.50731429 96.76222601 -254.875 94.3125 C-248.95933296 88.88351195 -242.70111606 84.01318294 -236.25 79.25 C-235.42459717 78.63922607 -235.42459717 78.63922607 -234.58251953 78.01611328 C-219.77604325 67.11768213 -204.24804987 57.29936419 -188.25 48.25 C-187.59128906 47.87665527 -186.93257812 47.50331055 -186.25390625 47.11865234 C-129.88796099 15.48954395 -64.40777878 0.05795515 0 0 Z M-116.25 216.25 C-117.14976562 216.93835937 -118.04953125 217.62671875 -118.9765625 218.3359375 C-124.18665516 222.41690791 -129.12041089 226.7620878 -134.00390625 231.2265625 C-135.77725596 232.82411928 -137.56683982 234.33383492 -139.4375 235.8125 C-143.10851423 238.99404566 -146.11840105 242.54628201 -149.25 246.25 C-150.0646875 247.17683594 -150.879375 248.10367187 -151.71875 249.05859375 C-203.55918531 308.37792894 -223.37129429 389.68220267 -218.23120117 466.98168945 C-213.69991853 532.0539967 -188.76456189 595.96374877 -143.25 643.25 C-142.42193848 644.11890869 -142.42193848 644.11890869 -141.57714844 645.00537109 C-107.76695864 680.35063233 -60.28462284 704.50526721 -10.91967773 706.3762207 C26.74206766 707.17656138 61.29848914 700.97840042 94.75 683.25 C95.40468262 682.91129883 96.05936523 682.57259766 96.73388672 682.22363281 C121.06152997 669.59508544 142.74365552 650.61460121 159.75 629.25 C160.40742187 628.45980469 161.06484375 627.66960937 161.7421875 626.85546875 C197.56415481 583.480677 215.2063003 527.50048001 220.75 472.25 C220.82202637 471.54037109 220.89405273 470.83074219 220.96826172 470.09960938 C228.01066698 396.35049538 208.66027689 314.65570541 161.00634766 256.79150391 C158.37468459 253.56252594 155.85675275 250.24043703 153.30859375 246.9453125 C152.79425781 246.38585938 152.27992188 245.82640625 151.75 245.25 C151.09 245.25 150.43 245.25 149.75 245.25 C149.51152344 244.68667969 149.27304688 244.12335938 149.02734375 243.54296875 C144.19571918 234.86968551 134.43380183 228.28727286 126.75 222.25 C125.25339844 221.04537109 125.25339844 221.04537109 123.7265625 219.81640625 C115.49185642 213.25435475 106.84249205 207.55274962 97.75 202.25 C97.03634277 201.83218262 96.32268555 201.41436523 95.58740234 200.98388672 C70.35392617 186.43278741 41.02599697 177.33382754 11.75390625 177.01171875 C11.01160263 177.0019249 10.26929901 176.99213104 9.50450134 176.98204041 C-36.66150353 176.49916321 -79.2177893 187.78565296 -116.25 216.25 Z " fill="#000000" transform="translate(1312.25,1118.75)"/>
<path d="M0 0 C1.24458984 -0.00570007 2.48917969 -0.01140015 3.77148438 -0.01727295 C6.39680143 -0.02666197 9.02212995 -0.03323244 11.64746094 -0.03710938 C15.55946963 -0.04671411 19.47092883 -0.07775583 23.3828125 -0.109375 C59.50744326 -0.26011671 93.97459642 5.16937642 128.625 15.203125 C130.05924316 15.61836426 130.05924316 15.61836426 131.52246094 16.04199219 C155.19901027 23.05954883 178.47024093 33.50727878 199.625 46.203125 C200.58116211 46.77426025 200.58116211 46.77426025 201.55664062 47.35693359 C226.3727886 62.34837123 250.09576176 82.03376623 267.625 105.203125 C268.26381104 106.03529541 268.26381104 106.03529541 268.91552734 106.88427734 C291.625 136.54907945 291.625 136.54907945 291.625 145.203125 C310.105 145.203125 328.585 145.203125 347.625 145.203125 C347.625 201.303125 347.625 257.403125 347.625 315.203125 C280.305 315.203125 212.985 315.203125 143.625 315.203125 C143.295 297.713125 142.965 280.223125 142.625 262.203125 C139.04326021 248.70293395 139.04326021 248.70293395 133.625 236.203125 C133.09132813 235.10484375 133.09132813 235.10484375 132.546875 233.984375 C118.73677481 207.14220843 91.97979221 188.59397011 63.80078125 179.48046875 C62.41040181 179.04966057 61.018488 178.6237696 59.625 178.203125 C58.96677246 178.00348145 58.30854492 177.80383789 57.63037109 177.59814453 C25.56999963 168.14516116 -15.36297762 169.13664348 -45.30322266 185.24023438 C-62.58128996 195.25522081 -74.69418849 208.59213242 -80.25 228.078125 C-84.43696487 245.77639981 -83.65732576 266.15695623 -75.16796875 282.53125 C-68.68763824 292.91471905 -59.79624621 301.85646488 -49.375 308.203125 C-48.385 308.83605469 -47.395 309.46898437 -46.375 310.12109375 C-30.00229772 320.10303606 -11.66023585 325.09122361 6.58654785 330.48638916 C26.22446834 336.30991836 45.64276679 342.75994006 65.0625 349.265625 C65.81482029 349.51760651 66.56714058 349.76958801 67.34225845 350.02920532 C73.99132035 352.25672699 80.63927881 354.48752567 87.28579712 356.72262573 C97.86188973 360.27897319 108.44478438 363.81450294 119.03125 367.33984375 C148.1555547 377.04151346 148.1555547 377.04151346 162.22290039 381.78662109 C164.56213801 382.57422432 166.90233366 383.35898704 169.2434082 384.14111328 C187.80992379 390.3464893 206.04757647 396.88161601 223.375 406.078125 C224.34107178 406.58786865 225.30714355 407.0976123 226.30249023 407.62280273 C245.03413934 417.65789366 261.30019356 430.56172209 276.625 445.203125 C277.71554687 446.21439453 277.71554687 446.21439453 278.828125 447.24609375 C285.16017262 453.28213101 290.34838308 460.254551 295.625 467.203125 C296.35074219 468.14542969 297.07648437 469.08773438 297.82421875 470.05859375 C338.07011688 523.58801031 347.55501284 595.46527635 338.84765625 660.30078125 C331.30499864 711.43494334 310.00293739 760.21983563 274.625 798.203125 C273.43259878 799.57387683 272.24486117 800.94870363 271.0625 802.328125 C265.06166828 809.1803333 258.63139666 815.17184313 251.51953125 820.86328125 C249.61598572 822.40204477 247.73712222 823.97194357 245.88671875 825.57421875 C192.76087953 871.49904519 115.5152291 894.1225017 46.22265625 894.40625 C44.50008102 894.41663551 44.50008102 894.41663551 42.7427063 894.42723083 C39.05760239 894.44441867 35.3726421 894.45081765 31.6875 894.453125 C30.43200348 894.45446442 29.17650696 894.45580383 27.88296509 894.45718384 C9.57694702 894.45293973 -8.24974877 893.91067197 -26.375 891.203125 C-28.01392793 890.99298978 -29.65323526 890.78578512 -31.29296875 890.58203125 C-77.3024512 884.51591162 -124.49291387 867.23993647 -162.375 840.203125 C-162.93960938 839.80689941 -163.50421875 839.41067383 -164.0859375 839.00244141 C-184.5649713 824.60449409 -204.41139736 807.37505343 -219.375 787.203125 C-219.81440918 786.62369141 -220.25381836 786.04425781 -220.70654297 785.44726562 C-247.375 750.10548062 -247.375 750.10548062 -247.375 737.203125 C-266.845 737.203125 -286.315 737.203125 -306.375 737.203125 C-306.375 681.103125 -306.375 625.003125 -306.375 567.203125 C-238.725 567.203125 -171.075 567.203125 -101.375 567.203125 C-101.045 583.703125 -100.715 600.203125 -100.375 617.203125 C-96.18235091 640.96146982 -90.56203372 659.64753869 -75.375 678.203125 C-74.87484375 678.85539062 -74.3746875 679.50765625 -73.859375 680.1796875 C-55.26838797 703.57868842 -21.81351813 713.2015125 6.53808594 716.81054688 C13.79665939 717.58102714 21.0837377 717.55066991 28.375 717.515625 C29.16459106 717.51380219 29.95418213 717.51197937 30.7677002 717.51010132 C42.58557305 717.46421566 54.1094141 717.1125348 65.625 714.203125 C66.65778076 713.94571533 66.65778076 713.94571533 67.71142578 713.68310547 C87.83588933 708.45942773 107.56040157 697.92869849 118.78125 679.83203125 C127.34750513 665.14561227 130.79828652 649.47426817 130.875 632.578125 C130.895625 631.46566406 130.91625 630.35320313 130.9375 629.20703125 C131.02221882 611.0136655 124.24957817 595.28139894 111.625 582.203125 C95.16365284 566.51340349 73.43858895 557.49461026 52.1875 550.203125 C51.02608994 549.79960815 51.02608994 549.79960815 49.84121704 549.38793945 C34.00398246 543.88554284 18.0378595 538.78864874 2.05834961 533.71777344 C-22.51554859 525.91681735 -47.00510084 517.86174367 -71.49005127 509.7868042 C-78.02774785 507.63146533 -84.56811481 505.48501769 -91.11505127 503.35791016 C-107.52169103 498.02643799 -123.76154744 492.61432923 -139.375 485.203125 C-140.08414551 484.86861328 -140.79329102 484.53410156 -141.52392578 484.18945312 C-169.16637114 471.03187997 -193.26867357 454.38739402 -215.375 433.203125 C-216.19613281 432.42324219 -217.01726563 431.64335938 -217.86328125 430.83984375 C-223.52484205 425.33473368 -228.51269376 419.41909729 -233.375 413.203125 C-234.06166748 412.33905029 -234.06166748 412.33905029 -234.76220703 411.45751953 C-264.08559531 374.42828599 -278.95694672 330.67661185 -284.375 284.203125 C-284.46120605 283.46868164 -284.54741211 282.73423828 -284.63623047 281.97753906 C-285.10195872 277.72232414 -285.2957838 273.47988953 -285.375 269.203125 C-285.39546387 268.19233887 -285.41592773 267.18155273 -285.43701172 266.14013672 C-286.61375137 196.98480059 -267.64123211 133.76601723 -219.33984375 82.98046875 C-213.08569952 76.53387381 -206.46021377 70.73233188 -199.375 65.203125 C-198.37984375 64.40261719 -197.3846875 63.60210938 -196.359375 62.77734375 C-188.1217036 56.21106535 -179.43191027 50.57106441 -170.375 45.203125 C-169.3864502 44.61700439 -169.3864502 44.61700439 -168.37792969 44.01904297 C-130.30062136 21.63664885 -87.57811155 9.24689899 -44 3.390625 C-43.21631042 3.28530457 -42.43262085 3.17998413 -41.62518311 3.07147217 C-39.34724605 2.76915576 -37.06850383 2.47433625 -34.7890625 2.18359375 C-34.132547 2.09846024 -33.47603149 2.01332672 -32.79962158 1.9256134 C-21.8850214 0.57453099 -10.99275418 0.04047095 0 0 Z " fill="#000000" transform="translate(2802.375,1109.796875)"/>
<path d="M0 0 C1.24458984 -0.00570007 2.48917969 -0.01140015 3.77148438 -0.01727295 C6.39680143 -0.02666197 9.02212995 -0.03323244 11.64746094 -0.03710938 C15.55946963 -0.04671411 19.47092883 -0.07775583 23.3828125 -0.109375 C59.39510833 -0.26094656 94.11056313 5.02056923 128.625 15.203125 C129.84292236 15.56011475 129.84292236 15.56011475 131.08544922 15.92431641 C182.46614979 31.27064218 233.49433801 61.45973444 266.625 104.203125 C267.43453125 105.20730469 268.2440625 106.21148438 269.078125 107.24609375 C275.38199221 115.13198918 280.64949804 123.42779767 285.625 132.203125 C286.25019531 133.30011719 286.87539062 134.39710938 287.51953125 135.52734375 C291.625 142.88257465 291.625 142.88257465 291.625 145.203125 C310.105 145.203125 328.585 145.203125 347.625 145.203125 C347.625 201.303125 347.625 257.403125 347.625 315.203125 C280.305 315.203125 212.985 315.203125 143.625 315.203125 C143.295 298.043125 142.965 280.883125 142.625 263.203125 C139.73592449 250.44312956 139.73592449 250.44312956 134.8125 238.890625 C134.46413086 238.23022217 134.11576172 237.56981934 133.75683594 236.8894043 C132.73571123 234.98025416 131.68666883 233.08995998 130.625 231.203125 C129.80708984 229.72199219 129.80708984 229.72199219 128.97265625 228.2109375 C112.63177171 200.64318608 82.09322923 183.9847959 51.9375 176.015625 C19.90106828 168.07780897 -20.48185579 170.16427559 -49.26953125 187.33300781 C-60.45379719 194.38974704 -69.72057502 203.06679822 -75.375 215.203125 C-75.81714844 216.1415625 -76.25929688 217.08 -76.71484375 218.046875 C-84.69410138 235.9944226 -84.68472842 257.28473833 -78.25 275.765625 C-70.85889412 293.88575554 -55.54123707 305.75850744 -38.5625 314.390625 C-37.98435547 314.68710938 -37.40621094 314.98359375 -36.81054688 315.2890625 C-23.80549655 321.64585337 -9.82944306 325.69479628 3.9987793 329.80789185 C25.51005233 336.22448253 46.84014733 343.14199602 68.125 350.265625 C69.19154879 350.62249201 69.19154879 350.62249201 70.27964401 350.98656845 C89.13717276 357.29856098 107.97749699 363.66217279 126.77880859 370.13989258 C136.04148566 373.32659176 145.32784156 376.4311928 154.63671875 379.48046875 C156.91809688 380.23057071 159.1994282 380.98081509 161.48071289 381.73120117 C165.83681548 383.16384051 170.1970652 384.5826744 174.56030273 385.9934082 C201.6777967 394.85389687 227.36668535 406.55949909 250.625 423.203125 C251.44508545 423.78779541 251.44508545 423.78779541 252.28173828 424.38427734 C281.19746047 445.23654477 303.91890227 473.80256532 318.625 506.203125 C318.95983398 506.93998535 319.29466797 507.6768457 319.63964844 508.43603516 C349.53275895 575.05697206 347.93597315 653.46139449 322.625 721.203125 C320.23428158 727.34243858 317.55928441 733.30595691 314.625 739.203125 C314.10969727 740.25016602 314.10969727 740.25016602 313.58398438 741.31835938 C299.30707502 770.05488077 278.66745518 798.82960214 253.625 819.203125 C252.52273936 820.13980406 251.42125574 821.07739786 250.3203125 822.015625 C235.59218878 834.42347344 219.54880738 845.03022112 202.625 854.203125 C201.45131542 854.86107469 200.27815116 855.51995327 199.10546875 856.1796875 C164.80378855 875.25308145 126.21982953 885.53133068 87.625 891.203125 C86.56941895 891.36828613 85.51383789 891.53344727 84.42626953 891.70361328 C48.53688776 897.15266842 9.48225745 896.58267425 -26.375 891.203125 C-28.06086981 890.98186055 -29.74705566 890.76298666 -31.43359375 890.546875 C-94.72976471 881.99193602 -156.82061569 853.2156528 -201.375 807.203125 C-202.59316406 805.98689453 -202.59316406 805.98689453 -203.8359375 804.74609375 C-216.56592803 791.99651862 -227.16040291 778.08299421 -236.25 762.515625 C-236.66572266 761.805271 -237.08144531 761.09491699 -237.50976562 760.36303711 C-241.60559719 753.14583786 -244.83387047 745.79125971 -248.375 738.203125 C-267.515 737.873125 -286.655 737.543125 -306.375 737.203125 C-306.375 681.103125 -306.375 625.003125 -306.375 567.203125 C-239.055 567.203125 -171.735 567.203125 -102.375 567.203125 C-102.045 579.083125 -101.715 590.963125 -101.375 603.203125 C-99.42357653 635.88946809 -90.88528911 664.38353324 -66.8203125 687.67578125 C-54.71402679 698.1077934 -40.54538564 705.41716044 -25.375 710.203125 C-24.18777344 710.58082031 -23.00054688 710.95851563 -21.77734375 711.34765625 C-18.00250277 712.44437284 -14.21739342 713.38249955 -10.375 714.203125 C-9.67503906 714.35410645 -8.97507812 714.50508789 -8.25390625 714.66064453 C26.48283951 721.73466987 67.85597735 719.77845579 98.40234375 700.4453125 C116.09634898 688.44144992 125.18838066 670.63432587 129.625 650.203125 C133.05247736 631.12350105 131.91788987 609.52029436 120.625 593.203125 C101.96003234 567.59709779 71.7122377 556.91866734 42.75 547.265625 C40.55843931 546.5285352 38.36703666 545.79097536 36.17578125 545.05297852 C5.52394434 534.75272121 -25.2236862 524.74144507 -56.03515625 514.92993164 C-121.07412933 494.2188213 -121.07412933 494.2188213 -139.375 485.203125 C-140.72776588 484.55317995 -142.08063222 483.90344394 -143.43359375 483.25390625 C-168.5740159 471.04765678 -191.51630645 456.180996 -211.71875 436.79199219 C-212.83898067 435.71733694 -213.96413693 434.6477965 -215.09375 433.58300781 C-255.08882405 395.79748305 -279.71308101 340.71496794 -284.375 286.203125 C-284.46040039 285.21610596 -284.54580078 284.22908691 -284.63378906 283.2121582 C-285.36302257 274.01898062 -285.61747884 264.85735536 -285.625 255.640625 C-285.62601212 254.50818863 -285.62601212 254.50818863 -285.62704468 253.35287476 C-285.55006301 198.45343201 -270.58103762 144.1840574 -235.375 101.203125 C-234.74972412 100.42557861 -234.74972412 100.42557861 -234.11181641 99.63232422 C-223.56678992 86.53653589 -211.7708606 74.39342702 -198.375 64.203125 C-197.72112305 63.69458984 -197.06724609 63.18605469 -196.39355469 62.66210938 C-170.46824928 42.54824827 -141.44820986 28.48964458 -110.375 18.203125 C-109.51342285 17.91598633 -108.6518457 17.62884766 -107.76416016 17.33300781 C-86.96157914 10.49640141 -65.66529922 6.2968038 -44 3.390625 C-43.21658234 3.2853952 -42.43316467 3.18016541 -41.62600708 3.07174683 C-39.34779143 2.76937543 -37.06877401 2.4744581 -34.7890625 2.18359375 C-33.80426659 2.05588593 -33.80426659 2.05588593 -32.79957581 1.92559814 C-21.88498146 0.57456931 -10.99274429 0.04047091 0 0 Z " fill="#000000" transform="translate(2103.375,1109.796875)"/>
<path d="M0 0 C1.57108125 1.17483437 3.14064846 2.35169601 4.70874023 3.53051758 C8.455619 6.33093134 12.25695029 9.05464946 16.05541992 11.78442383 C17.55698389 12.86869667 19.05828568 13.95333267 20.55932617 15.03833008 C23.544511 17.19447681 26.5316338 19.34789887 29.52026367 21.49926758 C38.03462673 27.63199062 46.50758194 33.81675172 54.94750977 40.05151367 C62.53210832 45.64874556 70.17130322 51.1685101 77.8215332 56.67553711 C82.32065161 59.91588577 86.81366111 63.16470085 91.30786133 66.41186523 C95.04336492 69.11040405 98.78023472 71.80700336 102.52026367 74.49926758 C111.03248063 80.63044483 119.50391446 86.81283756 127.94091797 93.04711914 C131.8579023 95.93835098 135.78221633 98.81833071 139.72729492 101.67114258 C140.86509399 102.49412842 140.86509399 102.49412842 142.02587891 103.33374023 C143.54108278 104.42263581 145.06143181 105.50440861 146.58691406 106.57885742 C150.08041812 109.05216835 153.41308533 111.53915602 156.56713867 114.43676758 C167.18311748 123.86171499 178.24685295 124.01356545 192.00708008 125.00854492 C211.20068638 126.74559242 229.20456787 135.90987481 241.68041992 150.42504883 C243.93126416 153.46880411 245.05541992 155.45352165 245.05541992 159.28442383 C246.0737793 159.31020508 247.09213867 159.33598633 248.14135742 159.36254883 C268.28698843 160.07988639 289.80284985 164.08896258 305.05541992 178.28442383 C305.81983398 178.9934082 306.58424805 179.70239258 307.37182617 180.43286133 C311.36231713 184.27761261 311.36231713 184.27761261 313.05541992 186.28442383 C313.05541992 186.94442383 313.05541992 187.60442383 313.05541992 188.28442383 C314.20655273 188.24961914 315.35768555 188.21481445 316.54370117 188.17895508 C337.75335425 187.73577501 365.01347193 190.04696244 381.30541992 205.40551758 C385.30330878 208.13702971 389.18927846 208.2872969 393.93041992 208.78442383 C412.45064881 211.12434094 430.19609861 215.63271127 443.84448242 229.10864258 C444.5740918 229.82665039 445.30370117 230.5446582 446.05541992 231.28442383 C446.93456055 232.19579102 447.81370117 233.1071582 448.71948242 234.04614258 C452.73567703 237.33056755 456.85881954 236.7074227 461.80541992 236.40942383 C482.58529701 235.81002171 503.8007602 240.20616203 521.05541992 252.28442383 C522.00363565 253.34525465 522.94089248 254.41596556 523.86791992 255.49536133 C526.31546382 258.03605742 527.93808828 258.71808427 531.45385742 258.98364258 C533.1125892 259.00416813 534.77178346 258.99908074 536.43041992 258.97192383 C538.22486039 259.00549998 540.0191649 259.04726834 541.81323242 259.09692383 C543.14402832 259.13172852 543.14402832 259.13172852 544.50170898 259.16723633 C561.10038673 259.92893473 580.6973611 266.13707127 593.27337646 277.24313354 C596.50213154 279.612193 599.2765988 280.53925042 603.11889648 281.65600586 C603.81635294 281.86213627 604.51380939 282.06826668 605.23240089 282.28064346 C607.55046634 282.96251401 609.87302503 283.62745865 612.19604492 284.29223633 C613.85021202 284.77452683 615.5041064 285.25775356 617.15774536 285.74185181 C621.61073053 287.04194505 626.06797625 288.32682257 630.52623749 289.60868835 C634.24249436 290.67941285 637.95599033 291.75954271 641.66956139 292.83953857 C664.18511516 299.3851122 686.75011672 305.73555205 709.36657715 311.92251587 C827.87633052 344.34279644 827.87633052 344.34279644 854.05541992 388.28442383 C861.28961756 403.11539226 862.65838947 419.30268234 857.38354492 435.10864258 C855.11945656 440.52247739 852.32143293 445.41687554 849.05541992 450.28442383 C848.32258789 451.38270508 848.32258789 451.38270508 847.57495117 452.50317383 C820.09788839 490.36359966 773.21526732 508.58638142 729.90307617 520.78051758 C728.87190674 521.07112061 727.8407373 521.36172363 726.77832031 521.66113281 C724.05541992 522.28442383 724.05541992 522.28442383 720.05541992 522.28442383 C719.78213867 523.01040771 719.50885742 523.7363916 719.22729492 524.484375 C718.09784318 527.18305876 716.80430939 529.57622729 715.30541992 532.08520508 C714.51651367 533.42808594 714.51651367 533.42808594 713.71166992 534.7980957 C712.6126352 536.65530886 711.50850808 538.50951847 710.39916992 540.3605957 C703.79805381 551.645592 703.86812583 557.95133764 706.43041992 570.84692383 C706.92272089 573.40970934 707.40987133 575.97349071 707.89135742 578.53833008 C708.11355957 579.6656958 708.33576172 580.79306152 708.56469727 581.95458984 C709.75443512 590.02764185 709.08560259 597.61088813 704.57885742 604.56176758 C700.03448662 610.13329068 695.38747765 613.72318558 688.16088867 614.65942383 C679.30950288 615.01570602 673.73373616 612.94377112 667.24291992 607.03442383 C659.76359073 599.8571103 659.46895136 587.41128317 657.90673828 577.69311523 C655.62684692 563.67087671 650.83878432 557.21285489 639.93041992 548.56567383 C637.05541992 546.28442383 637.05541992 546.28442383 635.18041992 544.50317383 C632.79075825 542.35247833 630.75820313 541.29545696 627.53613281 541.24487305 C626.54347412 541.33784668 625.55081543 541.43082031 624.52807617 541.52661133 C623.3655835 541.63497314 622.20309082 541.74333496 621.00537109 541.85498047 C614.19154509 542.59578768 607.38967765 543.42152408 600.58828735 544.26812744 C569.56690526 548.10568466 538.49953616 550.9833967 507.30541992 552.97192383 C505.87511948 553.0631955 505.87511948 553.0631955 504.41592407 553.15631104 C492.97150202 553.87781557 481.52712719 554.48019139 470.06768799 554.90788269 C465.39726846 555.09247011 460.73135127 555.33285506 456.0690918 555.66625977 C455.18056519 555.72722839 454.29203857 555.78819702 453.37658691 555.85101318 C449.54552549 556.56635284 448.03554764 558.66134645 445.80541992 561.72192383 C445.40194336 562.25817383 444.9984668 562.79442383 444.58276367 563.34692383 C443.37321948 564.97116889 442.21294549 566.62286308 441.05541992 568.28442383 C440.35932617 569.23446289 439.66323242 570.18450195 438.94604492 571.16333008 C437.25582352 573.50659157 435.60876497 575.84849636 434.05541992 578.28442383 C433.69891357 578.81592041 433.34240723 579.34741699 432.97509766 579.89501953 C431.60944908 583.44309562 431.87120694 586.92996467 431.96557617 590.67114258 C431.98601221 592.34887388 432.00618607 594.0266084 432.02612305 595.7043457 C432.06943208 598.33298406 432.11770316 600.96140659 432.171875 603.58984375 C432.2206104 606.13776902 432.25018631 608.68541562 432.27807617 611.23364258 C432.31071312 612.39194832 432.31071312 612.39194832 432.3440094 613.57365417 C432.42150908 622.23989379 430.00570022 629.26909934 423.99682617 635.55395508 C418.38696229 640.55429653 413.208423 641.92758142 405.72729492 641.59692383 C398.84168501 640.79158934 394.57959994 638.36315681 389.69604492 633.49145508 C385.27610016 627.54557701 383.4792003 622.07238571 383.21948242 614.72583008 C383.12359924 613.10666149 383.02723014 611.48752162 382.93041992 609.8684082 C382.8009676 607.35659177 382.68032517 604.84476443 382.57006836 602.33203125 C382.45576356 599.87808021 382.30794603 597.42776116 382.15698242 594.97583008 C382.13487701 594.23804825 382.11277161 593.50026642 382.08999634 592.74012756 C381.6692124 586.30409335 378.92706674 582.309486 375.05541992 577.28442383 C374.43987244 576.44508804 373.82432495 575.60575226 373.19012451 574.74098206 C366.4939198 565.97611782 359.29885976 557.60495351 348.06274414 555.45239258 C340.75884256 554.62497371 333.47516411 554.63104171 326.13941193 554.76067734 C322.47724844 554.8011916 318.81786122 554.72213928 315.15649414 554.64892578 C310.69700017 554.56494429 306.23822464 554.486549 301.77801514 554.45417786 C288.69489332 554.35647215 275.71756406 553.57650148 262.68041992 552.47192383 C261.14812241 552.34717682 261.14812241 552.34717682 259.58486938 552.21990967 C237.22218545 550.39498791 214.95338702 547.76346908 192.68041992 545.07983398 C145.10683918 539.35287822 145.10683918 539.35287822 97.35919189 535.43157959 C95.05875539 535.28463688 92.75901577 535.12915902 90.45922852 534.97241211 C63.9466243 533.20128436 37.42739274 533.10061231 10.86791992 533.09692383 C10.0298304 533.09640141 9.19174088 533.09587898 8.3282547 533.09534073 C-11.56937165 533.08390486 -31.44347279 533.30456424 -51.33333206 533.86328888 C-64.72255135 534.23284589 -78.09971961 534.34160379 -91.49379921 534.32264519 C-97.81025546 534.31654435 -104.12671363 534.33124036 -110.44315815 534.34308529 C-115.82157559 534.35083917 -121.19931458 534.34326882 -126.57763672 534.30859375 C-131.90970925 534.27520752 -137.24050075 534.28055059 -142.57256889 534.3121624 C-144.5727643 534.31705554 -146.57304943 534.30795806 -148.57310677 534.28395271 C-160.7392812 533.64914005 -160.7392812 533.64914005 -171.03222656 539.05175781 C-172.65674365 541.07563708 -172.65674365 541.07563708 -173.94458008 543.28442383 C-174.46556778 544.10109024 -174.98655548 544.91775665 -175.52333069 545.75917053 C-179.37903528 552.03827036 -180.05672169 557.3671327 -180.15551758 564.71020508 C-180.18359144 566.16138813 -180.21225595 567.61255986 -180.24145508 569.0637207 C-180.28259187 571.32795829 -180.31952245 573.59198557 -180.34594727 575.85644531 C-180.5720912 593.73156384 -180.5720912 593.73156384 -185.74145508 600.71020508 C-191.44006508 606.21506234 -196.15536469 609.32927128 -204.25708008 609.78442383 C-211.16230345 609.5567791 -216.76917011 607.30575272 -221.79614258 602.52270508 C-230.22929319 592.28245076 -229.3788996 579.60552688 -229.15405273 567.09130859 C-228.98089236 555.5661052 -230.81793997 547.93881816 -238.85766602 539.20654297 C-239.90228332 538.14754594 -240.97206919 537.11233895 -242.07348633 536.11254883 C-243.94458008 534.28442383 -243.94458008 534.28442383 -245.21142578 532.61254883 C-249.00668743 527.68480421 -251.98989327 526.05095428 -258.00708008 524.78442383 C-259.61113546 524.38948974 -261.21396025 523.98953194 -262.81567383 523.58520508 C-263.65211426 523.37847168 -264.48855469 523.17173828 -265.3503418 522.95874023 C-284.63417002 517.94632413 -309.69999008 510.21582205 -320.94458008 492.28442383 C-322.38847301 488.78131916 -323.3611846 485.19645731 -324.31958008 481.53442383 C-324.6106665 480.4509668 -324.90175293 479.36750977 -325.20166016 478.2512207 C-331.91735013 452.57644134 -336.41030923 426.6950747 -338.94458008 400.28442383 C-339.03046387 399.41060059 -339.11634766 398.53677734 -339.20483398 397.63647461 C-339.90237134 390.04606817 -340.11909606 382.51379232 -340.14770508 374.89379883 C-340.15471939 373.6429097 -340.1617337 372.39202057 -340.16896057 371.10322571 C-340.18639628 367.08025188 -340.19339526 363.05742736 -340.19458008 359.03442383 C-340.19502193 358.3495628 -340.19546379 357.66470177 -340.19591904 356.95908737 C-340.20292905 336.25481307 -339.92196112 315.8152816 -336.94458008 295.28442383 C-336.68717041 293.44074219 -336.68717041 293.44074219 -336.42456055 291.55981445 C-333.41687336 270.51944335 -328.96995869 249.67572977 -322.94458008 229.28442383 C-318.78386501 231.50347187 -315.06443599 233.91754849 -311.31958008 236.78442383 C-270.46275256 266.90720175 -218.59952993 281.06981779 -168.94458008 287.28442383 C-167.43831055 287.48165039 -167.43831055 287.48165039 -165.90161133 287.68286133 C-147.13046508 289.68728387 -120.02753564 291.5959357 -103.94458008 279.72192383 C-99.93813132 275.87259071 -98.00884228 270.66051306 -96.94458008 265.28442383 C-96.96717329 262.58942579 -96.96717329 262.58942579 -97.94458008 260.28442383 C-101.42282924 257.9268554 -105.0771501 257.77083334 -109.18286133 257.35473633 C-110.64609027 257.20007217 -112.10930589 257.04528196 -113.57250977 256.89038086 C-114.33704468 256.81225159 -115.10157959 256.73412231 -115.88928223 256.65362549 C-159.06653894 252.20056048 -210.15712802 244.55063939 -239.94458008 209.28442383 C-253.76571366 191.50747514 -260.19663498 171.05633063 -259.93676758 148.55395508 C-259.92898788 147.86879318 -259.92120819 147.18363129 -259.91319275 146.47770691 C-259.87639269 143.62990244 -259.83428938 140.78245475 -259.77319336 137.93505859 C-259.73059452 135.82880941 -259.70736622 133.72301929 -259.68676758 131.61645508 C-259.66469238 130.37613525 -259.64261719 129.13581543 -259.61987305 127.85791016 C-259.99886629 123.68698981 -261.12009091 121.02435645 -262.94458008 117.28442383 C-247.14706252 100.26544873 -247.14706252 100.26544873 -235.75708008 99.78442383 C-229.6942227 100.15445738 -225.0607178 101.78618301 -220.86645508 106.28051758 C-217.26731645 110.6042813 -216.67029985 114.82909886 -215.94458008 120.28442383 C-212.042139 144.1629532 -199.54274398 163.01294037 -179.94458008 177.28442383 C-142.06394917 203.94286057 -85.06833075 208.73003994 -40.32080078 201.76049805 C-24.19209602 198.88313585 -0.09759494 194.36037229 11.05541992 181.28442383 C-0.16959286 172.79684605 -11.51651829 164.49597005 -22.94458008 156.28442383 C-32.23114407 149.60408257 -41.49410825 142.89551072 -50.69458008 136.09692383 C-56.10482257 132.09947083 -61.52664097 128.12268341 -67.00708008 124.22192383 C-67.55017822 123.83456055 -68.09327637 123.44719727 -68.65283203 123.0480957 C-71.15750499 121.26316475 -73.66460084 119.4818906 -76.17797852 117.70922852 C-78.58367309 116.01114914 -80.98307151 114.30443191 -83.38208008 112.59692383 C-84.1278833 112.07412842 -84.87368652 111.55133301 -85.64208984 111.01269531 C-92.63798624 106.01585097 -98.61168478 101.01461185 -102.31958008 93.09692383 C-103.04274414 91.5906543 -103.04274414 91.5906543 -103.78051758 90.05395508 C-105.57125425 85.79344401 -106.12135012 82.2851161 -106.19458008 77.65942383 C-106.23325195 76.21696289 -106.23325195 76.21696289 -106.27270508 74.74536133 C-105.42668998 65.82191634 -102.05946314 59.15860853 -96.88208008 51.97192383 C-96.30208252 51.1457959 -95.72208496 50.31966797 -95.12451172 49.46850586 C-91.06026107 43.72093378 -86.82124153 38.13059548 -82.47583008 32.59301758 C-79.47919717 28.72950158 -76.68543552 24.72671732 -73.88208008 20.72192383 C-52.959894 -9.09850922 -52.959894 -9.09850922 -40.61254883 -12.32495117 C-23.91507983 -14.76967577 -13.1673621 -9.73866472 0 0 Z M193.91479492 238.33911133 C193.21870117 239.26981445 192.52260742 240.20051758 191.80541992 241.15942383 C188.83703429 245.00259861 185.84298727 248.70948171 182.55541992 252.28442383 C179.44083324 255.70181755 176.46355372 259.18964733 173.55541992 262.78442383 C170.64728612 266.37920033 167.6700066 269.86703011 164.55541992 273.28442383 C161.53259571 276.60431869 158.63029831 279.98206495 155.80541992 283.47192383 C150.59023477 289.91154376 145.14210241 296.13897786 139.7019043 302.38793945 C137.11904583 305.36297571 134.55485078 308.35386443 131.99291992 311.34692383 C131.25658325 312.2070105 131.25658325 312.2070105 130.50537109 313.08447266 C129.51656789 314.23972901 128.52787943 315.39508358 127.53930664 316.55053711 C125.04646468 319.46336429 122.55079226 322.37376443 120.05541992 325.28442383 C119.05540652 326.45107901 118.05540652 327.61774567 117.05541992 328.78442383 C99.05541992 349.78442383 99.05541992 349.78442383 97.55517578 351.53466797 C96.55593596 352.70047487 95.55674969 353.86632768 94.55761719 355.03222656 C92.04642531 357.96242781 89.53428599 360.89180674 87.02026367 363.81958008 C82.17965438 369.45864039 77.35048359 375.10655807 72.55541992 380.78442383 C67.25886102 387.05611332 61.9193757 393.29033454 56.5715332 399.51831055 C54.06441007 402.43884658 51.56004664 405.36174694 49.05541992 408.28442383 C48.05543333 409.45110199 47.05543332 410.61776865 46.05541992 411.78442383 C45.56041992 412.36192383 45.06541992 412.93942383 44.55541992 413.53442383 C28.05541992 432.78442383 28.05541992 432.78442383 26.55322266 434.53662109 C25.56006356 435.69554953 24.56738234 436.85488768 23.57519531 438.01464844 C20.97443491 441.05335961 18.36409818 444.0830949 15.73901367 447.10083008 C14.92400391 448.04152344 14.92400391 448.04152344 14.0925293 449.0012207 C13.05653682 450.19659664 12.0176525 451.38947493 10.9753418 452.5793457 C8.30459601 455.66773898 6.10572533 458.76221887 4.05541992 462.28442383 C18.67137374 465.17686055 33.32415253 467.70420217 48.04467773 470.00415039 C51.4763963 470.54162463 54.90651983 471.08860126 58.33666992 471.63598633 C60.54230953 471.98291033 62.74803558 472.32928535 64.95385742 472.67504883 C65.96741302 472.83749084 66.98096863 472.99993286 68.02523804 473.16729736 C76.68497289 475.01935324 76.68497289 475.01935324 84.85302734 473.12963867 C85.28462158 472.59032715 85.71621582 472.05101562 86.16088867 471.49536133 C86.66305908 470.89071045 87.16522949 470.28605957 87.68261719 469.66308594 C88.19751709 469.00187744 88.71241699 468.34066895 89.24291992 467.65942383 C90.38080338 466.27259235 91.51882734 464.88587614 92.65698242 463.49926758 C93.22449219 462.7927002 93.79200195 462.08613281 94.37670898 461.3581543 C96.88959254 458.25396102 99.50456547 455.24147463 102.11791992 452.22192383 C103.10956957 451.06502638 104.10045499 449.90747342 105.09057617 448.74926758 C108.07666138 445.25910204 111.0658115 441.77157151 114.05541992 438.28442383 C115.05543332 437.11776865 116.05543333 435.95110199 117.05541992 434.78442383 C195.05541992 343.78442383 195.05541992 343.78442383 196.55615234 342.03369141 C197.55387187 340.86960406 198.55143106 339.70537927 199.54882812 338.54101562 C202.08240735 335.58372496 204.61892129 332.62904014 207.16088867 329.67895508 C211.75148545 324.34607061 216.31303391 319.00256438 220.74291992 313.53442383 C224.29287314 309.15934635 228.01105813 304.97893191 231.80541992 300.81567383 C234.13404045 298.19597573 236.35104939 295.50927073 238.55541992 292.78442383 C241.46355372 289.18964733 244.44083324 285.70181755 247.55541992 282.28442383 C251.48207402 277.97534777 255.17040214 273.51093348 258.83666992 268.97973633 C262.12967002 264.97943691 265.57670398 261.12333379 269.05541992 257.28442383 C265.74716247 255.48207546 262.41062422 254.39211256 258.80566406 253.31323242 C258.1888829 253.12762253 257.57210175 252.94201263 256.93663025 252.7507782 C254.90576229 252.14088667 252.87328977 251.53657071 250.84057617 250.93286133 C249.42333707 250.50986367 248.00613692 250.0867355 246.588974 249.66348267 C243.62161287 248.77832227 240.6533745 247.89617673 237.68457031 247.01586914 C233.88502023 245.88874691 230.08842863 244.75199152 226.29251957 243.61267662 C223.36765149 242.73637014 220.44095181 241.86631342 217.51370049 240.99800491 C216.11325773 240.58155045 214.71346384 240.16290741 213.31434822 239.74201584 C211.35629087 239.15376103 209.3958436 238.57425356 207.43457031 237.99682617 C206.32078506 237.66532562 205.20699982 237.33382507 204.0594635 236.99227905 C198.49610098 235.58793265 198.49610098 235.58793265 193.91479492 238.33911133 Z M310.68041992 272.63598633 C309.79387409 273.71777222 308.91966791 274.80974222 308.05541992 275.90942383 C307.07568663 277.11184637 306.09519196 278.31364887 305.11401367 279.51489258 C304.35773682 280.45147705 304.35773682 280.45147705 303.58618164 281.40698242 C301.15177938 284.39271662 298.63448752 287.30544296 296.11791992 290.22192383 C295.10853453 291.3974726 294.09942143 292.57325523 293.09057617 293.74926758 C292.58929199 294.33305176 292.08800781 294.91683594 291.5715332 295.51831055 C289.06441007 298.43884658 286.56004664 301.36174694 284.05541992 304.28442383 C283.05543333 305.45110199 282.05543332 306.61776865 281.05541992 307.78442383 C280.31291992 308.65067383 280.31291992 308.65067383 279.55541992 309.53442383 C155.05541992 454.78442383 155.05541992 454.78442383 153.55297852 456.53686523 C152.56057942 457.69493382 151.56871072 458.85345715 150.57739258 460.01245117 C147.9654339 463.06475323 145.34270018 466.10688144 142.70385742 469.13598633 C142.15600586 469.76762695 141.6081543 470.39926758 141.04370117 471.05004883 C139.99500026 472.25872106 138.94308553 473.46461491 137.88745117 474.66723633 C135.50126315 477.42403121 133.59858616 479.98979494 132.05541992 483.28442383 C141.61670864 484.85369734 151.17868509 486.4186915 160.74156475 487.97824097 C165.18206073 488.70255101 169.62230656 489.42832764 174.06201172 490.1574707 C178.34730124 490.8611981 182.63320677 491.56105368 186.9195652 492.25823975 C188.55402935 492.52478504 190.18826751 492.79271998 191.82227135 493.06207275 C194.11253786 493.43936059 196.40356115 493.81168064 198.69482422 494.18286133 C199.36880249 494.29507019 200.04278076 494.40727905 200.73718262 494.52288818 C204.20548394 495.07917465 207.54213579 495.51614553 211.05541992 495.28442383 C212.70375659 494.17228174 212.70375659 494.17228174 213.96557617 492.49536133 C214.47419189 491.89071045 214.98280762 491.28605957 215.50683594 490.66308594 C216.03849365 490.00187744 216.57015137 489.34066895 217.11791992 488.65942383 C218.27415816 487.27269527 219.43040842 485.88597674 220.58666992 484.49926758 C221.45678711 483.4394165 221.45678711 483.4394165 222.34448242 482.3581543 C224.88984891 479.2730597 227.50509505 476.24984618 230.11791992 473.22192383 C231.10938183 472.06486548 232.10026701 470.9073127 233.09057617 469.74926758 C236.07666138 466.25910204 239.0658115 462.77157151 242.05541992 459.28442383 C243.05543332 458.11776865 244.05543333 456.95110199 245.05541992 455.78442383 C263.05541992 434.78442383 263.05541992 434.78442383 264.55615234 433.03369141 C265.55387187 431.86960406 266.55143106 430.70537927 267.54882812 429.54101562 C270.08240735 426.58372496 272.61892129 423.62904014 275.16088867 420.67895508 C279.75148545 415.34607061 284.31303391 410.00256438 288.74291992 404.53442383 C292.29287314 400.15934635 296.01105813 395.97893191 299.80541992 391.81567383 C302.13404045 389.19597573 304.35104939 386.50927073 306.55541992 383.78442383 C310.16574435 379.32166169 313.93969921 375.0572285 317.80541992 370.81567383 C320.13404045 368.19597573 322.35104939 365.50927073 324.55541992 362.78442383 C328.16574435 358.32166169 331.93969921 354.0572285 335.80541992 349.81567383 C338.13404045 347.19597573 340.35104939 344.50927073 342.55541992 341.78442383 C345.46355372 338.18964733 348.44083324 334.70181755 351.55541992 331.28442383 C354.57824413 327.96452896 357.48054154 324.58678271 360.30541992 321.09692383 C366.04579408 314.0070582 372.05423382 307.15322716 378.05541992 300.28442383 C378.84303711 299.38208008 379.6306543 298.47973633 380.44213867 297.55004883 C381.97792166 295.79308817 383.51518994 294.03748559 385.05541992 292.28442383 C384.19369442 289.9961526 384.19369442 289.9961526 381.41850281 289.28463745 C380.24254044 288.93378082 379.06657806 288.58292419 377.85498047 288.22143555 C377.20777039 288.02607208 376.5605603 287.83070862 375.89373779 287.62942505 C373.7454441 286.98322664 371.59396139 286.34845033 369.44213867 285.71411133 C367.95083728 285.26908923 366.45969436 284.82353576 364.96870422 284.37747192 C361.83865507 283.44291002 358.70705616 282.51379397 355.57421875 281.58862305 C351.55981682 280.40280361 347.54902879 279.20527187 343.53927898 278.00382805 C340.45815806 277.08174596 337.37543876 276.16510873 334.29218483 275.25018692 C332.81297467 274.81070402 331.33420956 274.36972034 329.85590172 273.92721176 C327.78683869 273.30893727 325.71579289 272.69782394 323.64404297 272.08862305 C322.46569382 271.7393576 321.28734467 271.39009216 320.07328796 271.03024292 C314.86473548 269.70754994 314.86473548 269.70754994 310.68041992 272.63598633 Z M427.98901367 306.30395508 C427.16530273 307.22563477 426.3415918 308.14731445 425.49291992 309.09692383 C424.82691772 309.84026978 424.82691772 309.84026978 424.14746094 310.59863281 C420.38993816 314.82643044 416.82243534 319.1996332 413.27026367 323.60083008 C411.09909166 326.2315094 408.85300635 328.76384807 406.55541992 331.28442383 C403.44083324 334.70181755 400.46355372 338.18964733 397.55541992 341.78442383 C393.9450955 346.24718596 390.17114063 350.51161916 386.30541992 354.75317383 C383.97679939 357.37287193 381.75979045 360.05957693 379.55541992 362.78442383 C376.64728612 366.37920033 373.6700066 369.86703011 370.55541992 373.28442383 C367.53259571 376.60431869 364.63029831 379.98206495 361.80541992 383.47192383 C356.59023477 389.91154376 351.14210241 396.13897786 345.7019043 402.38793945 C343.11904583 405.36297571 340.55485078 408.35386443 337.99291992 411.34692383 C337.25658325 412.2070105 337.25658325 412.2070105 336.50537109 413.08447266 C335.51656789 414.23972901 334.52787943 415.39508358 333.53930664 416.55053711 C331.04646468 419.46336429 328.55079226 422.37376443 326.05541992 425.28442383 C325.05540652 426.45107901 324.05540652 427.61774567 323.05541992 428.78442383 C305.05541992 449.78442383 305.05541992 449.78442383 303.55517578 451.53466797 C302.55593596 452.70047487 301.55674969 453.86632768 300.55761719 455.03222656 C298.04642531 457.96242781 295.53428599 460.89180674 293.02026367 463.81958008 C287.73042701 469.98196712 282.45031581 476.1518258 277.22387695 482.36816406 C274.74701742 485.30881621 272.24154939 488.21975737 269.69995117 491.10473633 C269.14436523 491.73959961 268.5887793 492.37446289 268.01635742 493.02856445 C266.93780736 494.25918496 265.85337832 495.48468385 264.76245117 496.7043457 C261.72569031 499.9935444 261.72569031 499.9935444 261.05541992 504.28442383 C270.83696808 505.9936613 280.62414968 507.66517864 290.42024326 509.289114 C294.96909646 510.04440302 299.51501562 510.81241319 304.05664062 511.61010742 C308.44151273 512.37977928 312.8308996 513.11522856 317.2254467 513.8275032 C318.89918368 514.10488493 320.57095014 514.3944456 322.24041939 514.69645309 C331.03459066 516.62483969 331.03459066 516.62483969 339.59875488 515.16271973 C341.412022 513.643262 342.70255114 512.21470533 344.05541992 510.28442383 C344.8262793 509.41301758 345.59713867 508.54161133 346.39135742 507.64379883 C347.06424805 506.78270508 347.73713867 505.92161133 348.43041992 505.03442383 C351.37264014 501.34418153 354.37121499 497.7681881 357.55541992 494.28442383 C360.6700066 490.86703011 363.64728612 487.37920033 366.55541992 483.78442383 C370.16574435 479.32166169 373.93969921 475.0572285 377.80541992 470.81567383 C380.13404045 468.19597573 382.35104939 465.50927073 384.55541992 462.78442383 C388.16574435 458.32166169 391.93969921 454.0572285 395.80541992 449.81567383 C398.13404045 447.19597573 400.35104939 444.50927073 402.55541992 441.78442383 C405.46355372 438.18964733 408.44083324 434.70181755 411.55541992 431.28442383 C414.57824413 427.96452896 417.48054154 424.58678271 420.30541992 421.09692383 C425.52060508 414.6573039 430.96873744 408.42986979 436.40893555 402.1809082 C438.99179401 399.20587194 441.55598907 396.21498323 444.11791992 393.22192383 C444.60881104 392.64853271 445.09970215 392.0751416 445.60546875 391.484375 C446.59427196 390.32911865 447.58296041 389.17376407 448.5715332 388.01831055 C451.06437516 385.10548337 453.56004759 382.19508322 456.05541992 379.28442383 C457.05543332 378.11776865 458.05543333 376.95110199 459.05541992 375.78442383 C477.05541992 354.78442383 477.05541992 354.78442383 478.55761719 353.03222656 C479.55077628 351.87329812 480.5434575 350.71395998 481.53564453 349.55419922 C484.13640493 346.51548805 486.74674167 343.48575276 489.37182617 340.46801758 C490.18683594 339.52732422 490.18683594 339.52732422 491.01831055 338.56762695 C492.05430303 337.37225102 493.09318735 336.17937273 494.13549805 334.98950195 C496.79807962 331.91054959 499.08430863 328.84835233 501.05541992 325.28442383 C493.83500657 322.42641413 486.44656767 320.24183149 479.00073242 318.05395508 C477.64926987 317.65485657 476.29786084 317.25557676 474.94650269 316.85612488 C472.13147568 316.02474463 469.31584569 315.19544859 466.49975586 314.36767578 C462.88714816 313.30560166 459.27607452 312.238414 455.66542244 311.16971302 C452.88312601 310.34677006 450.10006888 309.52642528 447.31676865 308.70688438 C445.98404658 308.31413972 444.65155858 307.9205999 443.31930923 307.52625465 C441.46535829 306.97792428 439.61026944 306.43344563 437.75512695 305.88916016 C436.70003937 305.5784407 435.64495178 305.26772125 434.55789185 304.94758606 C430.86089748 303.87163531 430.86089748 303.87163531 427.98901367 306.30395508 Z " fill="#000000" transform="translate(1389.944580078125,162.715576171875)"/>
<path d="M0 0 C7.92 0 15.84 0 24 0 C28.19555409 5.39428383 32.25648693 10.6723086 36.0625 16.3125 C37.01483617 17.71017323 37.96800144 19.1072818 38.921875 20.50390625 C39.42009766 21.23367676 39.91832031 21.96344727 40.43164062 22.71533203 C43.19836167 26.74568314 46.00579575 30.74743634 48.8125 34.75 C49.69748169 36.01263672 49.69748169 36.01263672 50.6003418 37.30078125 C51.80349447 39.0169161 53.00686428 40.73289875 54.21044922 42.44873047 C64.15145287 56.62110266 74.05665817 70.81799934 83.93701172 85.03271484 C86.04181642 88.06014636 88.14769015 91.08683151 90.25390625 94.11328125 C90.95467285 95.12028076 91.65543945 96.12728027 92.37744141 97.16479492 C93.69603594 99.05955182 95.01471301 100.95425129 96.33349609 102.84887695 C101.23374253 109.89144543 106.1163407 116.94582546 111 124 C111.33 83.08 111.66 42.16 112 0 C118.27 0 124.54 0 131 0 C131 50.82 131 101.64 131 154 C123.08 154 115.16 154 107 154 C98.63106946 144.44547097 98.63106946 144.44547097 96.2734375 139.890625 C92.97654741 133.82853633 89.13050525 128.29790143 85.125 122.6875 C83.77331705 120.74929311 82.42437357 118.80917297 81.078125 116.8671875 C80.40587891 115.90006836 79.73363281 114.93294922 79.04101562 113.93652344 C77.68033854 111.97884115 76.31966146 110.02115885 74.95898438 108.06347656 C67.98649756 98.0325883 61.01012886 88.00463072 54 78 C48.92610682 70.75791302 43.86404708 63.50769372 38.8125 56.25 C38.19568359 55.36441406 37.57886719 54.47882812 36.94335938 53.56640625 C31.262523 45.3998314 25.6361909 37.19809586 20 29 C19.67 70.25 19.34 111.5 19 154 C12.73 154 6.46 154 0 154 C0 103.18 0 52.36 0 0 Z " fill="#000000" transform="translate(1590,2160)"/>
<path d="M0 0 C92.25566484 0 92.25566484 0 113.54980469 20.51757812 C129.09075894 36.40388692 135.2600004 57.02272083 135.2487793 78.80737305 C134.95992299 99.39929528 128.06568816 117.68767889 113.8125 132.75 C83.26480932 161.99151356 39.34540562 154 0 154 C0 103.18 0 52.36 0 0 Z M19 17 C19 56.27 19 95.54 19 136 C63.15848005 138.39169531 63.15848005 138.39169531 99.8828125 119.31640625 C111.01314629 107.13875323 114.36130119 92.78213404 114.3125 76.6875 C114.32861328 75.63626953 114.34472656 74.58503906 114.36132812 73.50195312 C114.37006366 59.28924211 110.21515951 47.03567606 101.6875 35.625 C78.84930305 13.31792391 49.31578273 17 19 17 Z " fill="#000000" transform="translate(1874,2160)"/>
<path d="M0 0 C0.74886475 0.00523682 1.49772949 0.01047363 2.26928711 0.01586914 C3.07817383 0.0190918 3.88706055 0.02231445 4.72045898 0.02563477 C5.5705957 0.03401367 6.42073242 0.04239258 7.29663086 0.05102539 C8.15063477 0.05553711 9.00463867 0.06004883 9.88452148 0.06469727 C12.00108749 0.07652166 14.11761771 0.0944577 16.23413086 0.11352539 C20.78482171 8.9757467 24.95268195 17.88996059 28.73413086 27.11352539 C29.86095431 29.83498724 30.99268023 32.55440102 32.12475586 35.27368164 C32.59048004 36.39372337 32.59048004 36.39372337 33.06561279 37.53639221 C37.80123104 48.90437027 42.65239572 60.22367371 47.48413086 71.55102539 C48.48272527 73.89328528 49.48126044 76.23557044 50.47973633 78.57788086 C51.96679679 82.06627091 53.45390666 85.55463982 54.94125366 89.04290771 C59.22514311 99.09025211 63.50343094 109.1399696 67.77648926 119.19192505 C68.48634751 120.8616607 69.19638356 122.53132078 69.90661621 124.20089722 C71.75158681 128.53800229 73.59231695 132.87685684 75.42858887 137.21765137 C76.21262324 139.06290639 77.00596435 140.90419835 77.79956055 142.74536133 C78.26007813 143.82333984 78.7205957 144.90131836 79.19506836 146.01196289 C79.59258301 146.93412598 79.99009766 147.85628906 80.3996582 148.80639648 C81.23413086 151.11352539 81.23413086 151.11352539 81.23413086 154.11352539 C73.97413086 154.11352539 66.71413086 154.11352539 59.23413086 154.11352539 C57.09461325 149.02452994 54.95726346 143.93473658 52.82543945 138.8425293 C52.09917665 137.109572 51.37164168 135.3771473 50.64282227 133.64526367 C49.59701021 131.15950359 48.55574966 128.67188018 47.51538086 126.18383789 C47.02322083 125.01813766 47.02322083 125.01813766 46.52111816 123.82888794 C44.23413086 118.3412688 44.23413086 118.3412688 44.23413086 116.11352539 C6.61413086 116.60852539 6.61413086 116.60852539 -31.76586914 117.11352539 C-36.66005835 128.91501525 -36.66005835 128.91501525 -41.54882812 140.71875 C-42.16134252 142.19287166 -42.77404133 143.66691672 -43.38696289 145.14086914 C-43.86510437 146.29915222 -43.86510437 146.29915222 -44.35290527 147.48083496 C-46.65179734 152.99945359 -46.65179734 152.99945359 -47.76586914 154.11352539 C-49.32759659 154.20038142 -50.89316258 154.22054759 -52.45727539 154.21118164 C-53.40151367 154.20795898 -54.34575195 154.20473633 -55.31860352 154.20141602 C-56.31182617 154.19303711 -57.30504883 154.1846582 -58.32836914 154.17602539 C-59.32545898 154.17151367 -60.32254883 154.16700195 -61.34985352 154.16235352 C-63.82191763 154.15052546 -66.29386432 154.13404388 -68.76586914 154.11352539 C-68.19494125 149.72418614 -67.0979884 146.1971611 -65.23852539 142.18774414 C-64.43572144 140.4373584 -64.43572144 140.4373584 -63.61669922 138.65161133 C-63.1820787 137.71617493 -63.1820787 137.71617493 -62.73867798 136.76184082 C-61.13241556 133.30193358 -59.55223017 129.83010801 -57.96899414 126.35961914 C-57.45971123 125.24534042 -57.45971123 125.24534042 -56.94013977 124.10855103 C-52.89283776 115.23464221 -48.98667489 106.29928856 -45.07836914 97.36352539 C-43.54886304 93.86984225 -42.01877273 90.37641517 -40.48852539 86.88305664 C-40.10324173 86.0033017 -39.71795807 85.12354675 -39.32099915 84.21713257 C-34.51426421 73.24747387 -29.66517792 62.29653485 -24.81808472 51.34466553 C-20.68926713 42.01468187 -16.56880886 32.6814049 -12.49243164 23.32836914 C-12.1608606 22.5679985 -11.82928955 21.80762787 -11.4876709 21.0242157 C-9.94318982 17.48116047 -8.40155049 13.93691087 -6.86450195 10.390625 C-6.3290851 9.16020938 -5.79360732 7.92982027 -5.25805664 6.69946289 C-4.7977002 5.63775879 -4.33734375 4.57605469 -3.86303711 3.48217773 C-2.31914143 0.14909453 -2.31914143 0.14909453 0 0 Z M6.23413086 24.11352539 C5.79883057 25.17204712 5.79883057 25.17204712 5.35473633 26.25195312 C-1.34674919 42.53314302 -8.13458309 58.77450039 -15.04370117 74.96875 C-20.88138668 86.24080034 -20.88138668 86.24080034 -23.76586914 98.11352539 C-3.96586914 98.11352539 15.83413086 98.11352539 36.23413086 98.11352539 C34.50629117 92.93000632 32.83865147 87.93826269 30.80834961 82.90258789 C30.34783203 81.75612793 29.88731445 80.60966797 29.4128418 79.4284668 C28.92074219 78.21078613 28.42864258 76.99310547 27.92163086 75.73852539 C27.40214114 74.44746124 26.88294211 73.15628009 26.36401367 71.86499023 C25.2525592 69.09977012 24.1399027 66.33503767 23.02661133 63.57055664 C20.14990018 56.42266687 17.2927556 49.26693474 14.43301392 42.11224365 C12.91425467 38.31292768 11.39447682 34.51401926 9.87475586 30.71508789 C9.35945138 29.42684119 8.84415135 28.13859271 8.32885742 26.8503418 C7.96759766 25.94719238 7.60633789 25.04404297 7.23413086 24.11352539 C6.90413086 24.11352539 6.57413086 24.11352539 6.23413086 24.11352539 Z " fill="#000000" transform="translate(1370.765869140625,2159.886474609375)"/>
<path d="M0 0 C6.27 0 12.54 0 19 0 C19 21.45 19 42.9 19 65 C45.73 65 72.46 65 100 65 C100 43.55 100 22.1 100 0 C106.27 0 112.54 0 119 0 C119 50.82 119 101.64 119 154 C112.73 154 106.46 154 100 154 C100 130.24 100 106.48 100 82 C73.27 82 46.54 82 19 82 C19 105.76 19 129.52 19 154 C12.73 154 6.46 154 0 154 C0 103.18 0 52.36 0 0 Z " fill="#000000" transform="translate(450,2160)"/>
<path d="M0 0 C31.68 0 63.36 0 96 0 C96 5.61 96 11.22 96 17 C70.59 17 45.18 17 19 17 C19 33.5 19 50 19 67 C42.43 67 65.86 67 90 67 C90 72.94 90 78.88 90 85 C66.57 85 43.14 85 19 85 C19 107.77 19 130.54 19 154 C12.73 154 6.46 154 0 154 C0 103.18 0 52.36 0 0 Z " fill="#000000" transform="translate(2334,2160)"/>
<path d="M0 0 C39.6 0 79.2 0 120 0 C120 5.61 120 11.22 120 17 C103.5 17 87 17 70 17 C70 62.21 70 107.42 70 154 C63.73 154 57.46 154 51 154 C49.30634672 152.30634672 49.87391235 150.17011252 49.87301636 147.85073853 C49.87019653 146.73461685 49.86737671 145.61849518 49.86447144 144.46855164 C49.86649567 143.23321182 49.8685199 141.99787201 49.87060547 140.72509766 C49.86885315 139.43254562 49.86710083 138.13999359 49.86529541 136.80827332 C49.86072086 133.25244992 49.86251096 129.6966554 49.8656745 126.14083147 C49.86819906 122.42529756 49.86586019 118.70976618 49.86428833 114.99423218 C49.86246646 108.75135858 49.86487292 102.5084968 49.86962891 96.265625 C49.8750668 89.04419685 49.87331238 81.82279696 49.8678025 74.6013695 C49.86326618 68.40856993 49.86262352 62.21577888 49.86524117 56.02297819 C49.86680169 52.3212083 49.86700393 48.61945169 49.86370468 44.91768265 C49.86028294 40.78966853 49.86502424 36.66170316 49.87060547 32.53369141 C49.86858124 31.30240005 49.86655701 30.0711087 49.86447144 28.80250549 C49.86729126 27.68074417 49.87011108 26.55898285 49.87301636 25.40322876 C49.87339338 24.42650522 49.87377041 23.44978168 49.87415886 22.44346046 C50 20 50 20 51 17 C34.17 17 17.34 17 0 17 C0 11.39 0 5.78 0 0 Z " fill="#000000" transform="translate(882,2160)"/>
<path d="M0 0 C39.6 0 79.2 0 120 0 C120 5.61 120 11.22 120 17 C103.5 17 87 17 70 17 C70 62.21 70 107.42 70 154 C63.73 154 57.46 154 51 154 C51 108.79 51 63.58 51 17 C34.17 17 17.34 17 0 17 C0 11.39 0 5.78 0 0 Z " fill="#000000" transform="translate(2730,2160)"/>
<path d="M0 0 C6.27 0 12.54 0 19 0 C19 50.82 19 101.64 19 154 C12.73 154 6.46 154 0 154 C0 103.18 0 52.36 0 0 Z " fill="#000000" transform="translate(2572,2160)"/>
<path d="M0 0 C6.27 0 12.54 0 19 0 C19 50.82 19 101.64 19 154 C12.73 154 6.46 154 0 154 C0 103.18 0 52.36 0 0 Z " fill="#000000" transform="translate(724,2160)"/>
</svg>
